<svg width="1271" height="212" viewBox="0 119 1271 212" fill="none" xmlns="http://www.w3.org/2000/svg">
<path d="M14 273V129H38.4L86 224.6L133.6 129H158V273H132.6V187L90.8 273H81.2L39.4 187V273H14ZM193.87 321L214.67 263.8L215.07 280.6L168.07 165H196.27L227.87 246.8H221.47L252.87 165H280.07L219.07 321H193.87ZM288.133 273V129H315.733L378.333 225V129H405.933V273H378.333L315.733 177V273H288.133ZM478.036 276C466.969 276 457.203 273.633 448.736 268.9C440.336 264.1 433.736 257.533 428.936 249.2C424.203 240.8 421.836 231.2 421.836 220.4C421.836 208.6 424.169 198.333 428.836 189.6C433.503 180.867 439.936 174.1 448.136 169.3C456.336 164.433 465.769 162 476.436 162C487.769 162 497.403 164.667 505.336 170C513.269 175.333 519.136 182.833 522.936 192.5C526.736 202.167 528.069 213.533 526.936 226.6H500.036V216.6C500.036 205.6 498.269 197.7 494.736 192.9C491.269 188.033 485.569 185.6 477.636 185.6C468.369 185.6 461.536 188.433 457.136 194.1C452.803 199.7 450.636 208 450.636 219C450.636 229.067 452.803 236.867 457.136 242.4C461.536 247.867 467.969 250.6 476.436 250.6C481.769 250.6 486.336 249.433 490.136 247.1C493.936 244.767 496.836 241.4 498.836 237L526.036 244.8C521.969 254.667 515.536 262.333 506.736 267.8C498.003 273.267 488.436 276 478.036 276ZM442.236 226.6V206.4H513.836V226.6H442.236ZM583.716 276.2C575.249 276.2 568.349 274.767 563.016 271.9C557.682 269.033 553.516 265.4 550.516 261C547.582 256.6 545.482 252.033 544.216 247.3C542.949 242.5 542.182 238.133 541.916 234.2C541.649 230.267 541.516 227.4 541.516 225.6V165H569.116V216C569.116 218.467 569.249 221.633 569.516 225.5C569.782 229.3 570.616 233.133 572.016 237C573.416 240.867 575.682 244.1 578.816 246.7C582.016 249.3 586.516 250.6 592.316 250.6C594.649 250.6 597.149 250.233 599.816 249.5C602.482 248.767 604.982 247.367 607.316 245.3C609.649 243.167 611.549 240.067 613.016 236C614.549 231.867 615.316 226.467 615.316 219.8L630.916 227.2C630.916 235.733 629.182 243.733 625.716 251.2C622.249 258.667 617.016 264.7 610.016 269.3C603.082 273.9 594.316 276.2 583.716 276.2ZM618.716 273V237.2H615.316V165H642.716V273H618.716ZM664.664 273V165H688.664V191.4L686.064 188C687.464 184.267 689.331 180.867 691.664 177.8C693.997 174.733 696.864 172.2 700.264 170.2C702.864 168.6 705.697 167.367 708.764 166.5C711.831 165.567 714.997 165 718.264 164.8C721.531 164.533 724.797 164.6 728.064 165V190.4C725.064 189.467 721.564 189.167 717.564 189.5C713.631 189.767 710.064 190.667 706.864 192.2C703.664 193.667 700.964 195.633 698.764 198.1C696.564 200.5 694.897 203.367 693.764 206.7C692.631 209.967 692.064 213.667 692.064 217.8V273H664.664ZM787.733 276C776.866 276 767.333 273.567 759.133 268.7C750.933 263.833 744.533 257.133 739.933 248.6C735.399 240 733.133 230.133 733.133 219C733.133 207.733 735.466 197.833 740.133 189.3C744.799 180.7 751.233 174 759.433 169.2C767.633 164.4 777.066 162 787.733 162C798.599 162 808.133 164.433 816.333 169.3C824.599 174.167 831.033 180.9 835.633 189.5C840.233 198.033 842.533 207.867 842.533 219C842.533 230.2 840.199 240.1 835.533 248.7C830.933 257.233 824.499 263.933 816.233 268.8C808.033 273.6 798.533 276 787.733 276ZM787.733 250.6C796.466 250.6 802.966 247.667 807.233 241.8C811.566 235.867 813.733 228.267 813.733 219C813.733 209.4 811.533 201.733 807.133 196C802.799 190.267 796.333 187.4 787.733 187.4C781.799 187.4 776.933 188.733 773.133 191.4C769.333 194.067 766.499 197.767 764.633 202.5C762.833 207.233 761.933 212.733 761.933 219C761.933 228.667 764.099 236.367 768.433 242.1C772.833 247.767 779.266 250.6 787.733 250.6Z" fill="white"/>
<path d="M881.54 227.06C876.426 227.06 872.046 225.26 868.401 221.662C864.802 218.063 863.027 213.707 863.074 208.594C863.027 203.575 864.802 199.29 868.401 195.739C872.046 192.14 876.426 190.341 881.54 190.341C886.369 190.341 890.631 192.14 894.324 195.739C898.064 199.29 899.958 203.575 900.006 208.594C899.958 212.003 899.059 215.104 897.307 217.898C895.602 220.691 893.353 222.917 890.56 224.574C887.813 226.231 884.807 227.06 881.54 227.06Z" fill="#FFB830"/>
<path d="M919 273V129H977.2C978.6 129 980.333 129.067 982.4 129.2C984.467 129.267 986.433 129.467 988.3 129.8C996.3 131.067 1002.97 133.8 1008.3 138C1013.7 142.2 1017.73 147.5 1020.4 153.9C1023.07 160.3 1024.4 167.367 1024.4 175.1C1024.4 182.9 1023.07 190 1020.4 196.4C1017.73 202.8 1013.7 208.1 1008.3 212.3C1002.97 216.5 996.3 219.233 988.3 220.5C986.433 220.767 984.433 220.967 982.3 221.1C980.233 221.233 978.533 221.3 977.2 221.3H939.9V273H919ZM939.9 201.5H976.4C977.733 201.5 979.2 201.433 980.8 201.3C982.467 201.167 984.033 200.933 985.5 200.6C989.767 199.6 993.2 197.767 995.8 195.1C998.4 192.367 1000.27 189.233 1001.4 185.7C1002.53 182.167 1003.1 178.633 1003.1 175.1C1003.1 171.567 1002.53 168.067 1001.4 164.6C1000.27 161.067 998.4 157.967 995.8 155.3C993.2 152.567 989.767 150.7 985.5 149.7C984.033 149.3 982.467 149.033 980.8 148.9C979.2 148.767 977.733 148.7 976.4 148.7H939.9V201.5ZM1083.92 276C1073.12 276 1063.76 273.567 1055.82 268.7C1047.89 263.833 1041.76 257.133 1037.42 248.6C1033.16 240 1031.02 230.1 1031.02 218.9C1031.02 207.633 1033.22 197.733 1037.62 189.2C1042.02 180.6 1048.19 173.933 1056.12 169.2C1064.06 164.4 1073.32 162 1083.92 162C1094.72 162 1104.09 164.433 1112.02 169.3C1119.96 174.167 1126.09 180.867 1130.42 189.4C1134.76 197.933 1136.92 207.767 1136.92 218.9C1136.92 230.167 1134.72 240.1 1130.32 248.7C1125.99 257.233 1119.86 263.933 1111.92 268.8C1103.99 273.6 1094.66 276 1083.92 276ZM1083.92 256.3C1094.26 256.3 1101.96 252.833 1107.02 245.9C1112.16 238.9 1114.72 229.9 1114.72 218.9C1114.72 207.633 1112.12 198.633 1106.92 191.9C1101.79 185.1 1094.12 181.7 1083.92 181.7C1076.92 181.7 1071.16 183.3 1066.62 186.5C1062.09 189.633 1058.72 194 1056.52 199.6C1054.32 205.133 1053.22 211.567 1053.22 218.9C1053.22 230.233 1055.82 239.3 1061.02 246.1C1066.22 252.9 1073.86 256.3 1083.92 256.3ZM1195.8 276C1185.73 276 1177.03 273.5 1169.7 268.5C1162.43 263.5 1156.8 256.7 1152.8 248.1C1148.87 239.433 1146.9 229.7 1146.9 218.9C1146.9 208.033 1148.9 198.333 1152.9 189.8C1156.9 181.2 1162.57 174.433 1169.9 169.5C1177.3 164.5 1186.07 162 1196.2 162C1206.4 162 1214.97 164.5 1221.9 169.5C1228.9 174.433 1234.17 181.2 1237.7 189.8C1241.3 198.4 1243.1 208.1 1243.1 218.9C1243.1 229.7 1241.3 239.4 1237.7 248C1234.1 256.6 1228.8 263.433 1221.8 268.5C1214.8 273.5 1206.13 276 1195.8 276ZM1198.7 257.1C1205.57 257.1 1211.17 255.467 1215.5 252.2C1219.83 248.933 1223 244.433 1225 238.7C1227 232.967 1228 226.367 1228 218.9C1228 211.433 1226.97 204.833 1224.9 199.1C1222.9 193.367 1219.77 188.9 1215.5 185.7C1211.3 182.5 1205.93 180.9 1199.4 180.9C1192.47 180.9 1186.77 182.6 1182.3 186C1177.83 189.4 1174.5 193.967 1172.3 199.7C1170.17 205.433 1169.1 211.833 1169.1 218.9C1169.1 226.033 1170.17 232.5 1172.3 238.3C1174.5 244.033 1177.77 248.6 1182.1 252C1186.5 255.4 1192.03 257.1 1198.7 257.1ZM1228 273V195.3H1225.6V129H1246.6V273H1228Z" fill="#00D1C1"/>
</svg>
